<svg width="25" height="25" viewBox="0 0 25 25" fill="none" xmlns="http://www.w3.org/2000/svg">
<path d="M8.00544 12.061C8.00544 9.84994 9.79682 8.05708 12.0072 8.05708C14.2176 8.05708 16.0099 9.84994 16.0099 12.061C16.0099 14.272 14.2176 16.0648 12.0072 16.0648C9.79682 16.0648 8.00544 14.272 8.00544 12.061ZM5.84165 12.061C5.84165 15.4672 8.60196 18.2283 12.0072 18.2283C15.4124 18.2283 18.1728 15.4672 18.1728 12.061C18.1728 8.65474 15.4124 5.89363 12.0072 5.89363C8.60196 5.89363 5.84165 8.65474 5.84165 12.061ZM16.976 5.64909C16.9759 5.93415 17.0603 6.21284 17.2185 6.44992C17.3767 6.687 17.6017 6.87182 17.8649 6.98101C18.1281 7.09021 18.4178 7.11886 18.6974 7.06336C18.9769 7.00786 19.2337 6.8707 19.4353 6.66921C19.6369 6.46773 19.7742 6.21097 19.8299 5.93141C19.8856 5.65185 19.8572 5.36205 19.7482 5.09864C19.6393 4.83524 19.4547 4.61007 19.2178 4.45161C18.9809 4.29314 18.7024 4.2085 18.4174 4.20839H18.4168C18.0349 4.20856 17.6686 4.36039 17.3984 4.63052C17.1282 4.90065 16.9763 5.26699 16.976 5.64909V5.64909ZM7.15629 21.8374C5.98564 21.784 5.34935 21.589 4.92651 21.4242C4.36591 21.2059 3.96593 20.9459 3.54539 20.5258C3.12485 20.1057 2.86453 19.706 2.64725 19.1452C2.48242 18.7225 2.28742 18.0858 2.2342 16.9148C2.17599 15.6488 2.16437 15.2685 2.16437 12.0611C2.16437 8.85363 2.17695 8.47438 2.2342 7.20731C2.28752 6.03631 2.48395 5.4009 2.64725 4.97688C2.86549 4.41612 3.12543 4.01602 3.54539 3.59536C3.96535 3.1747 4.36495 2.91431 4.92651 2.69696C5.34916 2.53208 5.98564 2.33703 7.15629 2.2838C8.42195 2.22557 8.80214 2.21394 12.0072 2.21394C15.2123 2.21394 15.5928 2.22653 16.8596 2.2838C18.0302 2.33712 18.6654 2.53362 19.0893 2.69696C19.6499 2.91431 20.0499 3.17528 20.4705 3.59536C20.891 4.01545 21.1503 4.41612 21.3686 4.97688C21.5334 5.39965 21.7284 6.03631 21.7816 7.20731C21.8399 8.47438 21.8515 8.85363 21.8515 12.0611C21.8515 15.2685 21.8399 15.6477 21.7816 16.9148C21.7283 18.0858 21.5324 18.7223 21.3686 19.1452C21.1503 19.706 20.8904 20.1061 20.4705 20.5258C20.0505 20.9455 19.6499 21.2059 19.0893 21.4242C18.6667 21.5891 18.0302 21.7841 16.8596 21.8374C15.5939 21.8956 15.2137 21.9072 12.0072 21.9072C8.8007 21.9072 8.42156 21.8956 7.15629 21.8374V21.8374ZM7.05687 0.12303C5.77863 0.181257 4.90518 0.383997 4.14239 0.680901C3.35241 0.987509 2.68366 1.39885 2.01538 2.06626C1.34711 2.73367 0.936946 3.40367 0.630426 4.19388C0.333608 4.95737 0.130927 5.8306 0.0727156 7.1092C0.0135441 8.38983 0 8.79925 0 12.061C0 15.3227 0.0135441 15.7321 0.0727156 17.0127C0.130927 18.2914 0.333608 19.1646 0.630426 19.928C0.936946 20.7178 1.34721 21.3885 2.01538 22.0557C2.68356 22.7228 3.35241 23.1335 4.14239 23.441C4.90662 23.7379 5.77863 23.9407 7.05687 23.9989C8.3378 24.0571 8.74643 24.0716 12.0072 24.0716C15.268 24.0716 15.6773 24.0581 16.9575 23.9989C18.2359 23.9407 19.1087 23.7379 19.872 23.441C20.6615 23.1335 21.3307 22.7231 21.999 22.0557C22.6673 21.3883 23.0766 20.7178 23.384 19.928C23.6808 19.1646 23.8844 18.2913 23.9417 17.0127C23.9999 15.7311 24.0134 15.3227 24.0134 12.061C24.0134 8.79925 23.9999 8.38983 23.9417 7.1092C23.8835 5.8305 23.6808 4.95689 23.384 4.19388C23.0766 3.40415 22.6662 2.73473 21.999 2.06626C21.3318 1.39779 20.6615 0.987509 19.873 0.680901C19.1087 0.383997 18.2358 0.180296 16.9585 0.12303C15.6782 0.0648019 15.2689 0.050293 12.0082 0.050293C8.74739 0.050293 8.3378 0.063841 7.05687 0.12303Z" fill="#FDFDFD"/>
</svg>
