<svg width="21" height="20" viewBox="0 0 21 20" fill="none" xmlns="http://www.w3.org/2000/svg">
<path d="M5.47771 19.7269V6.76069H1.17177V19.7269H5.47816H5.47771ZM3.32564 4.99068C4.82689 4.99068 5.76152 3.99503 5.76152 2.75075C5.73342 1.47812 4.82689 0.510254 3.35419 0.510254C1.88048 0.510254 0.917969 1.47812 0.917969 2.75064C0.917969 3.99492 1.85226 4.99057 3.29743 4.99057H3.3253L3.32564 4.99068ZM7.8611 19.7269H12.1667V12.4867C12.1667 12.0997 12.1948 11.7117 12.3085 11.4353C12.6197 10.6607 13.3282 9.85891 14.5179 9.85891C16.0756 9.85891 16.6991 11.0478 16.6991 12.7911V19.7269H21.0046V12.2925C21.0046 8.30997 18.8806 6.45671 16.0477 6.45671C13.7252 6.45671 12.7051 7.756 12.1384 8.64095H12.167V6.76114H7.86132C7.91753 7.97752 7.86099 19.7273 7.86099 19.7273L7.8611 19.7269Z" fill="#FDFDFD"/>
</svg>
