<svg width="22" height="24" viewBox="0 0 22 24" fill="none" xmlns="http://www.w3.org/2000/svg">
<path d="M18.5318 5.10282C18.3725 5.02052 18.2175 4.93031 18.0673 4.83251C17.6305 4.54375 17.2301 4.2035 16.8745 3.8191C15.985 2.80126 15.6527 1.76868 15.5304 1.04572H15.5353C15.433 0.445635 15.4753 0.057373 15.4817 0.057373H11.43V15.7245C11.43 15.9348 11.43 16.1427 11.4212 16.3482C11.4212 16.3737 11.4187 16.3973 11.4172 16.4248C11.4172 16.4361 11.4172 16.4479 11.4148 16.4597C11.4148 16.4627 11.4148 16.4656 11.4148 16.4686C11.3721 17.0307 11.1919 17.5737 10.89 18.0499C10.5882 18.526 10.174 18.9207 9.68382 19.1992C9.17295 19.4898 8.59516 19.6423 8.00741 19.6415C6.11967 19.6415 4.58972 18.1022 4.58972 16.2012C4.58972 14.3002 6.11967 12.7609 8.00741 12.7609C8.36475 12.7606 8.71989 12.8168 9.05965 12.9275L9.06456 8.80212C8.03314 8.66889 6.9853 8.75086 5.98715 9.04287C4.989 9.33487 4.06219 9.83056 3.2652 10.4987C2.56685 11.1055 1.97975 11.8294 1.53031 12.6381C1.35927 12.9329 0.713973 14.1179 0.635829 16.041C0.586682 17.1326 0.914493 18.2634 1.07078 18.7308V18.7407C1.16908 19.0159 1.54997 19.9551 2.17069 20.7468C2.67123 21.382 3.26259 21.9399 3.92574 22.4026V22.3928L3.93557 22.4026C5.89703 23.7355 8.07179 23.648 8.07179 23.648C8.44826 23.6328 9.70937 23.648 11.1415 22.9693C12.73 22.2168 13.6343 21.0958 13.6343 21.0958C14.212 20.426 14.6714 19.6626 14.9927 18.8385C15.3593 17.8747 15.4817 16.7187 15.4817 16.2568V7.945C15.5308 7.97449 16.1855 8.40747 16.1855 8.40747C16.1855 8.40747 17.1286 9.01198 18.6001 9.40565C19.6558 9.68579 21.0781 9.74477 21.0781 9.74477V5.72256C20.5797 5.77663 19.5678 5.61936 18.5318 5.10282Z" fill="#FDFDFD"/>
</svg>
